<?xml version="1.0" encoding="utf-8"?>
<!-- Generator: Adobe Illustrator 22.1.0, SVG Export Plug-In . SVG Version: 6.00 Build 0)  -->
<svg version="1.1" id="Group_271" xmlns="http://www.w3.org/2000/svg" xmlns:xlink="http://www.w3.org/1999/xlink" x="0px" y="0px"
	 viewBox="0 0 138.7 127.3" style="enable-background:new 0 0 138.7 127.3;" xml:space="preserve">
<style type="text/css">
	.st0{fill:url(#SVGID_1_);}
	.st1{fill:#C5203E;}
	.st2{clip-path:url(#SVGID_3_);}
	.st3{fill:#FFFFFF;}
</style>
<linearGradient id="SVGID_1_" gradientUnits="userSpaceOnUse" x1="54.863" y1="112.813" x2="153.187" y2="14.4891">
	<stop  offset="0" style="stop-color:#049875"/>
	<stop  offset="1" style="stop-color:#50B848"/>
</linearGradient>
<rect x="69.3" y="0" class="st0" width="69.3" height="127.3"/>
<g id="Group_260" transform="translate(0 0.177)">
	<g id="Group_259" transform="translate(73.333 40.224)">
		<g id="Group_257">
			<rect id="Rectangle_818" x="-73.3" y="-40.4" class="st1" width="69.3" height="127.3"/>
			<g>
				<g>
					<defs>
						<rect id="SVGID_2_" x="-73.3" y="-40.4" width="69.3" height="127.3"/>
					</defs>
					<clipPath id="SVGID_3_">
						<use xlink:href="#SVGID_2_"  style="overflow:visible;"/>
					</clipPath>
					<g id="Group_256" class="st2">
						<path id="Path_285" class="st1" d="M-138.5,37.8l91.9-110.3L61.2,8.7l-92,110.3L-138.5,37.8z"/>
					</g>
				</g>
			</g>
		</g>
	</g>
</g>
<g id="Group_269" transform="translate(82.557 100.214)">
	<g id="Group_267">
		<path id="Path_287" class="st3" d="M-48.5,9.2c-13.7,0-24.8-11.1-24.8-24.8s11.1-24.8,24.8-24.8s24.8,11.1,24.8,24.8l0,0
			C-23.7-1.9-34.8,9.2-48.5,9.2z M-48.5-38.7c-12.8,0-23.1,10.4-23.1,23.2S-61.2,7.6-48.4,7.6s23.1-10.4,23.1-23.2l0,0
			C-25.4-28.4-35.8-38.7-48.5-38.7z"/>
	</g>
	<g id="Group_268" transform="translate(6.344 18.198)">
		<path id="Path_288" class="st3" d="M-61.9-40.4v7.4c0,1.7-0.1,3.4-1.4,4.6c-2.6,1.9-6.1,1.9-8.7,0c-1.3-1.3-1.4-3-1.4-4.6v-7.4
			h3.4v6.9c0,1.7,0.1,3.6,2.3,3.6s2.3-1.9,2.3-3.6v-6.9H-61.9z"/>
		<path id="Path_289" class="st3" d="M-56.4-29.5l-0.9,2.3h-3.6l5.1-13.2h3.7l5,13.2h-3.6l-0.8-2.3H-56.4z M-54-36.3L-54-36.3
			l-1.4,4.2h2.8L-54-36.3z"/>
		<path id="Path_290" class="st3" d="M-46.1-40.4h5.2c2.8,0,4.8,1.3,4.8,4.3c0,3.1-1.7,4.5-4.7,4.5h-1.9v4.4h-3.4
			C-46.1-27.2-46.1-40.4-46.1-40.4z M-42.7-34.4h0.6c1.2,0,2.5,0,2.5-1.6c0-1.7-1.1-1.7-2.5-1.7h-0.6V-34.4z"/>
	</g>
</g>
<g id="Group_270" transform="translate(154.706 99.761)">
	<path id="Path_291" class="st3" d="M-64.2-7.4c-0.5-0.9-0.2-2,0.6-2.5l0,0c0.9-0.5,2-0.2,2.5,0.7s0.2,2-0.7,2.5
		c-0.3,0.2-0.6,0.3-0.9,0.2C-63.2-6.5-63.8-6.9-64.2-7.4 M-57.9-12.9c-0.8-1.4-3.8-0.9-2.8,1.1c-1.9-1.1-4.3-0.4-5.4,1.5
		s-0.4,4.3,1.5,5.4s4.3,0.4,5.4-1.5c0.3-0.6,0.5-1.2,0.5-1.9c1.3,1.8,3.1-0.5,2.3-1.9c0.8-0.6,2.3-1.5,3.7-2.4c0.1-1,0.1-2,0.1-3.1
		C-54.2-14.7-56.7-13.4-57.9-12.9 M-38.1-6.8c-0.9-0.5-1.1-1.6-0.6-2.5c0.5-0.8,1.6-1.1,2.4-0.7c0.9,0.5,1.2,1.6,0.7,2.5l0,0
		c-0.3,0.6-0.9,0.9-1.6,0.9C-37.6-6.5-37.9-6.6-38.1-6.8 M-47.2-12.6c1.4,0.8,2.9,1.8,3.7,2.4c-0.8,1.4,1.1,3.7,2.3,1.9
		c0,2.2,1.8,3.9,4,3.9s3.9-1.8,3.9-4s-1.8-3.9-4-3.9c-0.7,0-1.3,0.2-1.9,0.5c1-2-2-2.5-2.8-1.1c-1.2-0.5-3.7-1.8-5.3-2.7
		C-47.3-14.6-47.2-13.6-47.2-12.6 M-51.7-30.4c0-1,0.8-1.8,1.8-1.8s1.8,0.8,1.8,1.8s-0.8,1.8-1.8,1.8
		C-50.9-28.5-51.7-29.3-51.7-30.4C-51.7-30.3-51.7-30.4-51.7-30.4 M-53.9-30.4c0,1.4,0.7,2.7,1.9,3.4c-2.2,0.2-1.1,3,0.5,3
		c0.2,1.5,0.3,4.9,0.3,6.7c0,6.9-0.9,15.3-3.3,17.6c-2,0.1-3.9-0.1-5.8-0.7c-2-0.5-3.9-1.4-5.6-2.6c-1.5,0.2-3,0.6-4.3,1.3
		c2.7,2.3,5.6,4.4,8.7,6.2c3.7,2.1,7.6,3.9,11.7,5.1c7.5-2.3,14.4-6.2,20.4-11.3c-1.4-0.7-2.8-1.1-4.3-1.3c-1.7,1.2-3.6,2.1-5.6,2.6
		c-1.9,0.5-3.9,0.8-5.8,0.7c-2.4-2.3-3.3-10.7-3.3-17.6c0-1.9,0.1-5.2,0.3-6.7c1.6,0,2.7-2.8,0.5-3c1.9-1.1,2.5-3.5,1.4-5.4
		s-3.5-2.5-5.4-1.4C-53.1-33.1-53.9-31.8-53.9-30.4 M-61.6-36c-3.7,2.1-7.2,4.7-10.3,7.6c-1.8,7.7-1.9,15.6-0.4,23.3
		C-71-5.9-69.9-7-69-8.2c-0.2-2.1,0-4.1,0.6-6.1c0.5-1.9,1.3-3.7,2.3-5.4c2.6-0.7,8.3,1.4,13.6,4.1c0-0.6,0-1.1,0-1.7
		c0-0.5,0-1,0-1.6c-4.4-3-8.4-6.4-9-8.8c0.9-1.7,2.1-3.3,3.5-4.7c1.4-1.5,3.1-2.7,5-3.6c0.6-1.4,1-2.9,1.1-4.4
		C-55.3-39.2-58.5-37.7-61.6-36 M-46.8-36c1.9,0.9,3.6,2.1,5,3.6c1.4,1.4,2.6,2.9,3.5,4.7c-0.6,2.4-4.5,5.8-9,8.8c0,0.6,0,1.2,0,1.6
		c0,0.6,0,1.1,0,1.7c5.3-2.7,11-4.8,13.6-4.1c1.1,1.6,1.9,3.5,2.3,5.4c0.6,2,0.8,4.1,0.6,6.1c0.9,1.2,2,2.3,3.3,3.1
		c0.7-3.5,1-7.1,1-10.6c0-4.3-0.5-8.5-1.4-12.7c-3.1-2.9-6.6-5.5-10.3-7.6c-3.1-1.8-6.3-3.3-9.7-4.4C-47.8-38.9-47.4-37.4-46.8-36"
		/>
</g>
</svg>
